<svg version="1.2" xmlns="http://www.w3.org/2000/svg" viewBox="0 0 1024 1024" width="1024" height="1024">
	<title>softkit-academy-logo-blue-purple</title>
	<style>
		.s0 { fill: #282828 } 
		.s1 { fill: #f9fafb } 
		.s2 { fill: #8d57ab } 
	</style>
	<g id="Background">
		<path id="Path 0" class="s0" d="m0 512v512h1024v-1024h-1024z"/>
		<path id="Path 1" fill-rule="evenodd" class="s1" d="m519.5 255.5c3.5 0.2 6.2 1.2 8.9 3.2 2.2 1.5 5 4.8 6.4 7.3 1.5 2.9 2.4 6.2 2.4 9.5 0 2.8-0.6 6.6-1.4 8.5-0.8 1.9-3.2 5.2-5.4 7.3-2.1 2.1-4.7 3.7-5.7 3.7-1.5 0-1.7 1.4-1.7 15.5 0 9.7-0.4 15.5-1 15.5-0.5 0-1.9-0.6-3-1.3-1.6-0.9-2.4-0.9-4 0.1-1.1 0.6-2.1 1.2-2.3 1.2-0.1 0-0.2-1.9-0.2-4.2 0-2.4-0.2-9.4-0.3-15.5-0.2-11.2-0.2-11.3-2.7-11.8-1.4-0.3-4.1-2-6.1-3.7-1.9-1.8-4.3-5.3-5.1-7.8-1.2-3.2-1.5-6.1-1-10 0.4-3.3 1.7-7 3.2-9.2 1.4-2.1 3.9-4.5 5.6-5.5 1.6-0.9 4.2-2 5.7-2.4 1.5-0.5 4.9-0.7 7.7-0.4zm-75 31.6c1.1-0.1 3.8 0.4 6 1 2.2 0.7 5.3 2.1 6.8 3.3 1.6 1.1 3.8 3.7 5 5.6 1.1 1.9 2.4 5.1 2.9 7 0.4 1.9 0.3 5.7-0.2 8.5-0.7 3.7-2.1 6.1-5 9.3-2.2 2.3-5.1 4.4-9 5.2v32l-4.5 2.5c-2.5 1.4-4.7 2.5-5 2.5-0.3 0-0.5-8.2-0.5-36.5l-4.2-1.5c-2.7-0.9-5.4-3-7.3-5.5-2-2.6-3.4-5.8-3.9-9-0.6-3.6-0.4-6.4 0.8-10 0.9-2.8 3-6.4 4.8-8.2 1.8-1.8 5.1-3.9 7.3-4.7 2.2-0.8 4.9-1.5 6-1.5zm144 0c1.1-0.1 3.7 0.4 5.7 0.9 2.1 0.6 5.6 2.7 7.9 4.7 2.3 2.2 4.7 5.7 5.6 8.3 1.1 3.1 1.4 6 1 9.5-0.4 3-1.8 6.6-3.4 9-1.6 2.3-4.6 4.9-11.2 8l-0.6 37.4-9.6-6.4 0.1-31.5-3.3-1c-1.7-0.5-4.6-2.4-6.3-4.2-1.8-1.8-3.6-4.2-4.1-5.3-0.6-1.1-1.3-3.7-1.7-5.8-0.3-2-0.1-5.6 0.4-8 0.6-2.3 2.6-6.1 4.5-8.5 2.5-3 4.8-4.6 8.2-5.6 2.7-0.8 5.7-1.5 6.8-1.5zm-243.5 26c1.9 0 5.5 0.9 8 2 2.5 1.1 5.6 3 6.8 4.2 1.3 1.2 3.3 4 4.5 6.2 1.4 2.7 2 5.9 2 10 0 4.5-0.6 7.2-2.4 10.5-1.3 2.5-4.5 6-11.4 11.1l0.5 32.9 8 5.3c4.3 2.8 7.9 5.4 8 5.7 0 0.3-1.9 1.7-8.5 5.8l-7-4.2c-5.5-3.3-7.5-5.2-9.3-8.6-2-4.1-2.2-5.9-2.2-20.8 0-14.8-0.2-16.2-1.8-16.2-0.9 0-3.8-1.3-6.5-3-2.6-1.6-5.9-4.9-7.5-7.2-2.3-3.5-2.7-5.2-2.7-11.2 0-5.7 0.5-8 2.5-11.5 1.4-2.4 3.6-5.3 5-6.3 1.4-1 4.3-2.5 6.5-3.3 2.2-0.8 5.6-1.4 7.5-1.4zm342.5 0c2.6-0.1 5.9 0.9 9.4 2.6 3 1.6 6.4 4.2 7.6 5.8 1.2 1.6 2.7 4.6 3.4 6.5 0.6 1.9 1.1 5.5 1.1 8 0 2.7-0.9 6.5-2.4 9.5-1.3 2.7-3.7 5.9-5.3 6.9-1.5 1.1-4.4 2.8-9.8 5.4l0.4 15.4c0.4 15 0.3 15.4-2.3 20.3-2 3.8-4.1 5.9-15.1 12.7l-4.5-2.5c-2.5-1.4-4.6-2.9-4.7-3.4-0.1-0.4 3.3-3.1 15.2-10.9l0.5-32.4-3.7-1.8c-2-0.9-5.1-3.5-7-5.7-2.2-2.6-3.7-5.9-4.5-9.5-1-4.7-0.9-6.3 0.7-11 1.1-3.7 3.1-6.8 5.9-9.5 2.2-2.2 5.7-4.5 7.6-5.2 1.9-0.6 5.3-1.1 7.5-1.2zm-171 25.9c0.5 0 1.9 0.6 3 1.4 1.1 0.8 13.7 7.7 28 15.3 14.3 7.7 31.4 16.8 38 20.3 6.6 3.5 14.7 7.7 18 9.5 3.3 1.7 13.1 6.9 21.8 11.6 8.6 4.6 15.7 8.6 15.7 8.9 0 0.3-1.4 1.1-3.2 1.8-1.8 0.8-7.8 3.1-13.3 5.2-5.5 2.1-16.8 5.7-25 7.9-8.2 2.3-20.2 5-26.5 6-6.3 1-13.1 1.7-15 1.6-1.9-0.1-6.6-0.3-17.5-0.5l-1.2-4.5c-0.8-2.8-2.9-6.1-5.5-8.9-3.2-3.2-5.8-4.8-9.8-6-4.6-1.3-6.4-1.4-11-0.3-3.1 0.6-7.2 2.4-9.3 3.9-2 1.6-4.6 4.3-5.7 6-1.1 1.8-2.2 5.1-2.6 7.3-0.3 2.2 0 6.7 0.7 10 1 4.6 2.1 6.8 4.8 9.5 2 2 5.9 4.3 8.6 5.3 3.1 1 6.9 1.5 10 1.2 2.8-0.2 5.1-0.8 5.3-1.4 0.1-0.6 1.3-1.1 2.7-1.1 1.4 0 2.5-0.4 2.5-1 0-0.6 0.3-0.8 0.8-0.6 0.4 0.3 2.1-0.7 3.7-2.1 2.6-2.3 3.4-2.5 6-1.6 1.6 0.5 8.9 0.9 16 0.7 7.1-0.1 15.5-0.5 18.5-0.8 3-0.3 12.5-2.4 21-4.7 8.5-2.2 22.9-6.5 32-9.6 9.1-3 17.5-6.1 18.8-6.9 1.2-0.8 2.2-1.2 2.2-0.9 0 0.3 2.9-0.6 6.5-2 3.6-1.4 6.5-2.1 6.5-1.5 0 0.6 0.7 1 1.5 1 0.8 0 5.2 2 18 8.8l-7 3.7c-3.9 2.1-8.6 4.7-10.5 5.8-1.9 1-15.2 8.2-29.5 15.9-14.3 7.8-29.1 16-33 18.3-3.9 2.3-10.6 6.1-15 8.5-4.4 2.4-13.4 7.3-20 11-6.6 3.7-17.2 9.6-23.5 13-6.3 3.5-13.1 7.2-15 8.3-1.9 1.1-5.4 3.1-7.7 4.4-4.3 2.3-4.3 2.3-7 0.4-1.6-1-16.3-9.4-32.8-18.6-16.5-9.2-34.5-19.3-40-22.5-5.5-3.2-16.8-9.5-25-14-8.3-4.5-21.3-11.7-29-16-7.7-4.3-18.4-10.2-33.4-18.5l13.2-7.2c7.3-3.9 26.3-14.2 42.2-22.9 15.9-8.6 35.1-18.9 42.5-22.9 7.4-4 24.5-13.2 38-20.5 13.5-7.2 24.9-13.6 25.5-14.1 0.5-0.5 1.4-0.9 2-0.9zm-219 55.2c4.8 0.3 6.7 0.9 9.8 3.3 2.1 1.7 4.8 5 5.9 7.5 1.7 3.7 2 5.6 1.5 10.5-0.5 4.4-1.4 6.9-3.4 9.5-1.6 1.9-4 4.1-5.5 5-2.8 1.5-2.8 1.6-2.8 22l3.2-1.6c2.4-1.2 4.7-1.5 8.3-1 2.7 0.3 6.1 1.4 7.5 2.4 1.4 1.1 3.7 3.6 5.3 5.8 1.7 2.4 2.9 5.8 3.3 8.9 0.4 3.4 0.1 6.4-1.1 9.5-0.9 2.5-1.8 5.2-2.1 6-0.3 1 2.3 3.5 7.7 7.5 8 5.9 8.3 6 13.8 5.7 3.6-0.3 6.5-1.1 8.1-2.3 1.4-1.1 3.9-2.4 5.5-2.9 1.7-0.4 4.8-0.4 7 0.1 2.3 0.5 5.3 2.2 7 3.9 2.4 2.5 3.1 4.1 3.3 8.3 0.3 4.2-0.1 5.9-2 8.7-1.3 1.9-3.5 4.1-4.8 4.7-1.4 0.7-4.2 1.3-6.3 1.3-2 0-5.1-0.7-6.7-1.5-1.6-0.8-3.9-2.7-5-4.3-1.2-1.5-2.1-3.7-2-5 0-2.1-0.4-2.2-16-2.2l-10.5-8c-9.3-7.1-11-8-14.8-8-2.3 0-6.1-0.9-8.5-2-2.6-1.3-5.2-3.6-7-6.2-2.4-3.7-2.7-4.9-2.5-11.5 0.2-4 0.3-9.2 0.3-11.6 0-2.3-0.2-9-1-25.7l-3.3-0.5c-2-0.2-4.5-1.7-6.8-4.2-1.9-2.1-4.1-5.6-4.8-7.8-0.8-2.4-1.1-5.6-0.7-8 0.4-2.2 1.7-5.8 2.9-8 1.4-2.6 3.8-4.8 6.7-6.3 3.6-1.8 5.7-2.3 10.5-2zm440.8-0.2c2.8 0 6.3 0.8 8.7 2 2.2 1.1 5.1 3.5 6.4 5.2 1.4 1.8 3 5.3 3.7 7.8 0.9 3.5 0.9 5.5-0.1 9-0.8 3.1-2.6 5.9-5.6 8.7-2.4 2.4-5.5 4.5-6.9 4.8-2.5 0.5-2.5 0.6-2.5 10.7 0 7-0.4 10.7-1.2 11.6-1.1 1-0.9 2.2 0.6 6.5 1.2 3.4 1.8 6.9 1.5 10.3-0.3 3.3-1.3 6.4-3.2 9.2-1.7 2.6-4.3 4.9-7 6.2-2.3 1.1-6.2 2-8.7 2-4.1 0-5.4 0.7-25.5 16.1l-7.8-0.1c-7.6 0-7.7 0-8.4 2.7-0.3 1.6-1.3 3.9-2.2 5.2-0.9 1.3-2.8 3-4.4 3.7-1.5 0.8-4.5 1.4-6.7 1.4-2.2 0-5.4-0.7-7-1.5-1.6-0.8-3.9-3-5-4.8-1.1-1.7-2-4.7-2-6.5 0-1.7 0.6-4.7 1.3-6.5 0.8-1.7 2.7-4.2 4.3-5.5 2.1-1.7 4.2-2.3 7.9-2.3 3.7 0 6 0.7 9 2.7 3 2 5.3 2.7 9 2.7 4.1 0 5.8-0.5 9.7-3.4 2.6-1.9 6.5-4.6 12.8-8.9l-1.9-3.8c-1-2-2.2-5.1-2.6-6.7-0.4-1.8-0.1-5.2 0.8-8.5 1-3.6 2.7-6.6 4.9-8.8 1.8-1.8 5.3-4 7.8-4.9 3.5-1.3 5.5-1.5 14 0.2v-10.3c0-9.5-0.1-10.2-2-10.2-1.1 0-3.5-1.8-5.5-4.3-2-2.3-4.1-6-4.7-8.2-0.8-3-0.7-5.2 0.1-8.5 0.7-2.5 2.3-6 3.5-7.8 1.3-1.7 4.1-4.1 6.2-5.2 2.2-1 6-1.9 8.6-2zm-342.1 74.1l6.2 3.5c3.4 1.9 7.7 4.3 12.9 6.9l-0.7 9.5c-0.3 5.2-0.8 12.2-1 15.5-0.2 3.3-0.7 12.3-1.1 20-0.6 12.6-0.5 14.4 1.2 17.9 1 2.2 3.5 5.3 5.5 7 1.9 1.7 5.4 4.8 7.7 6.8 2.3 2.1 4.9 3.8 5.7 3.8 0.8 0 1.5 0.5 1.5 1 0 0.5 0.4 0.8 1 0.5 0.6-0.3 1 0.1 1 0.7 0 0.7 0.2 1 0.5 0.5 0.3-0.4 1.2 0 2 0.8 0.8 0.8 1.9 1.3 2.5 1 0.6-0.3 1 0 1 0.5 0 0.5 0.4 0.8 1 0.5 0.6-0.3 1.1 0 1.3 0.5 0.1 0.6 0.9 1.2 1.7 1.3 0.8 0.2 2.4 0.8 3.5 1.4 1.1 0.6 3.6 1.5 5.5 2.2 1.9 0.6 4.4 1.3 5.5 1.5 1.1 0.2 4.9 1.4 8.5 2.6 3.6 1.2 10.7 3 15.8 4.1 5 1 10.8 1.7 12.7 1.4 1.9-0.3 3.3-0.2 3.1 0.2-0.2 0.5 0.6 0.8 1.7 0.9 1.2 0 3 0.8 4 1.7 1.6 1.6 1.7 5.3 1.2 104.5l-7.5-6.9c-4.1-3.7-7.8-6.9-8.2-6.9-0.5 0-0.8-12.7-0.8-56.5l-2.7-5.5c-1.5-3.2-5.4-8.2-9.3-12-3.7-3.7-10-8.5-14.5-11-4.4-2.5-12.1-6.2-17-8.3-4.9-2.2-12.8-5.2-17.5-6.7-4.7-1.6-12.9-4-18.2-5.4-5.4-1.4-10.7-2.6-11.8-2.6-1.1 0-2-0.7-2-1.5 0-0.8-0.9-3.3-2-5.5-1.1-2.2-2.7-4.2-3.5-4.5-1.1-0.4-1.5-2-1.5-6.3 0-3.1 0.4-12.5 1-20.7 0.5-8.3 1.4-23.1 2-33 0.6-9.9 1.3-19.7 1.6-21.7zm242.3-0.1l0.7 7.2c0.4 4 1.2 15.2 1.8 24.8 0.7 9.6 1.6 25.4 3 52.5l-3 2.2c-1.7 1.3-3.1 3.6-3.4 5.3-0.3 1.8-1.4 3.4-2.8 4-1.2 0.5-6.7 2.1-12.2 3.4-5.5 1.4-14.7 4.1-20.5 6.1-5.8 2-15.7 6.2-22 9.4-6.3 3.1-14 7.5-17 9.7-3 2.3-7.4 6.2-9.8 8.8-2.3 2.5-5.3 6.8-6.7 9.6-2.1 4.2-2.5 6.4-2.5 13.7 0 4.9-0.3 17.6-1.2 47.8l-15.8 14.5v-107.5l10.2-1.3c5.7-0.8 12.3-1.6 14.8-1.9 2.5-0.3 6.5-1.1 9-1.8 2.5-0.7 8.3-2.7 13-4.5 4.7-1.8 13.2-5.5 19-8.3 5.8-2.7 12.1-6 14-7.3 1.9-1.4 5.7-4.6 8.4-7.2 2.7-2.6 5.5-6.2 6.2-8 1.2-2.7 1.2-7.2-0.1-29-0.8-14.1-1.6-27.1-1.6-28.8-0.2-2.9 0.4-3.4 9.2-8.2zm-211.2 21l6.8 5.3-0.5 32.6 3.5 3.6c1.9 2 6.4 5.6 10 7.9 3.6 2.4 9.9 5.9 14 7.9 4.1 1.9 12.7 5.4 19 7.8 6.3 2.3 14.6 5 25.5 7.9l-9.5-0.6c-5.2-0.3-12.9-1.2-17-2.1-4.1-0.8-11.6-2.8-16.5-4.5-5-1.6-12.8-5-17.5-7.4-4.7-2.4-11.2-6.6-20.4-13.9l0.8-20c0.4-11 1-21 1.3-22.3zm179.3 36c0.3 0 0.4 2.2 0.2 5-0.2 3.3-0.8 5.2-1.8 5.6-0.8 0.4-1.8 0.6-2.2 0.5-0.4 0-0.5 0.3-0.3 0.9 0.3 0.5-2 2.5-5.2 4.4-3.2 1.9-8.5 4.8-11.8 6.4-3.3 1.7-9.3 4-13.5 5.1-4.1 1.2-11.7 3-17 4.1-5.2 1.1-9.7 1.8-10 1.5-0.2-0.2 1.1-0.7 3-1.1 2-0.3 8.7-2.7 15-5.1 6.4-2.5 14.9-6.3 19-8.5 4.2-2.2 10.9-6.5 14.9-9.7 4.1-3.1 7.8-6.4 8.3-7.4 0.5-0.9 1.1-1.7 1.4-1.7zm-228.6 5v11.2c0 10.7-0.2 11.4-2.5 13.5-1.4 1.3-3 4-3.6 6-1 3.1-0.9 4.6 0.5 8.5 1.1 3.3 2.6 5.4 4.9 6.8 1.8 1.1 4.7 2 6.5 2 1.8 0 4.5-0.7 6-1.6 2.6-1.5 3.4-1.4 14.7 1.6 6.6 1.8 17.2 5 23.5 7.2 6.4 2.2 16.3 6.6 22 9.7 5.8 3 13 7.4 16 9.6 3.1 2.3 7 6.3 8.8 9 2.6 3.9 3.3 6 3.3 9.7-0.1 2.7-0.5 4.8-1.1 4.8-0.5 0-1.2-0.5-1.5-1-0.2-0.6-4.2-3.2-8.7-5.8-4.5-2.7-12.5-6.7-17.8-8.9-5.2-2.2-11.8-4.7-14.7-5.4-4.2-1.1-5.3-1.8-5.3-3.4 0-1.1-0.9-3.5-2-5.3-1.1-1.7-3.3-3.9-5-4.7-1.6-0.8-5-1.5-7.5-1.5-2.4 0-5.9 0.8-7.6 1.7-1.7 1-3.9 3.5-5 5.5-1 2.1-1.9 5.1-1.9 6.8 0 1.6 0.6 4.5 1.4 6.2 0.7 1.8 2.8 4.4 4.7 5.7 2.4 1.8 4.8 2.5 8.1 2.5 3.3 0.1 5.6-0.6 10.8-4.4l7.8 2.9c4.3 1.6 11.1 4.5 15.2 6.4 4.2 2 10.5 5.5 14 7.8 3.6 2.3 8.7 6.3 16.1 13.4v8.2c0 4.6-0.3 8.3-0.6 8.3-0.2 0-2.1-1.2-4.2-2.6-2.1-1.4-11.6-6.5-21.3-11.3-9.6-4.8-23.6-11-31.2-13.9-7.6-2.9-20.4-7.2-28.5-9.7-8.1-2.4-21.3-5.8-29.3-7.6-7.9-1.7-16.9-3.5-20-4-3-0.5-10.9-1.6-17.5-2.5-6.6-0.8-12.1-1.6-12.2-1.7-0.2-0.1 1.8-8.1 4.3-17.7 2.6-9.6 7-26.6 9.8-37.6 2.8-11.1 5.4-20.4 5.6-20.7 0.3-0.3 8.2-1.1 17.5-1.7 9.4-0.7 17.2-1.4 17.5-1.6 0.2-0.2 2.5-0.4 10-0.4zm278.5 0h3.5c2 0 12.1 0.7 22.5 1.6 10.5 0.9 19.1 1.7 19.3 1.8 0.1 0 2.2 8.2 4.7 18.1 2.4 9.9 6.9 27 10 38 3 11 5.4 20.1 5.3 20.3-0.2 0.1-7 1.1-15.3 2.2-8.2 1.1-19.9 3-26 4.1-6 1.1-16.4 3.4-23 5-6.6 1.7-18.3 5.1-26 7.6-7.7 2.5-18.9 6.5-25 8.8-6 2.4-15.7 6.6-21.5 9.3-5.7 2.7-14.4 7.2-28 15.2v-16.5l4.3-4.1c2.3-2.3 6.5-5.6 9.2-7.5 2.8-1.8 8.9-5.2 13.5-7.5 4.7-2.2 12.3-5.5 16.8-7.3 8-3 8.3-3.1 10.5-1.3 1.2 1 3.9 2.1 6 2.5 2.8 0.5 4.9 0.2 8.2-1.3 2.7-1.2 5.3-3.3 6.5-5.3 1.1-1.7 2.2-4.4 2.5-6 0.3-1.6-0.3-4.6-1.5-7.2-1.2-2.7-3.3-5.3-5.2-6.5-1.8-1.1-4.9-2-7-2-2.1 0-5.4 0.8-7.5 1.7-2 1-4.5 3.1-5.4 4.8-1 1.6-1.8 3.7-1.8 4.5 0 1-3.2 2.6-9.8 4.9-5.4 1.8-12.9 4.7-16.8 6.3-3.8 1.6-10.1 5.1-14 7.6-3.8 2.6-7.5 5-8.2 5.4-1 0.6-1.1-0.4-0.6-4.5 0.3-2.8 1.2-6.4 2-8 0.7-1.5 3.3-4.6 5.6-7 2.3-2.3 7.4-6.1 11.2-8.4 3.9-2.4 12-6.5 18-9.2 6.1-2.7 17.3-6.8 25-9.1 7.7-2.3 15.8-4.7 18-5.3 3.5-1 4.5-1 7.5 0.5 2 1 4.6 1.8 5.8 1.8 1.2 0 3.9-0.8 5.9-1.8 2.1-0.9 4.5-3.1 5.5-4.7 1-1.7 1.8-4.7 1.8-6.8 0-2-0.5-4.7-1.1-6-0.6-1.2-1.9-3.1-2.9-4.2-1.5-1.6-1.9-4.2-2.1-13.3zm72.4 28.5l11.2 34c6.1 18.7 13.4 41 16 49.5 2.7 8.6 4.9 16 4.9 16.5 0 0.6-2.2 1.9-4.8 2.9-2.6 1-13.7 5.2-24.7 9.2-11 4-29.3 10.7-40.5 14.9-11.3 4.2-25.3 9.4-31 11.5-5.8 2.1-24 8.9-40.5 15-16.5 6.1-33.6 12.5-38 14.2-4.4 1.7-8.5 3.3-9 3.5-0.6 0.3-2.3-1.4-3.8-3.6-1.5-2.2-2.8-4.5-3-5.1-0.1-0.6 1.3-1.7 3.3-2.4 1.9-0.7 22.1-8.2 45-16.8 22.8-8.5 54.5-20.3 70.5-26.1 15.9-5.8 34.6-12.5 41.5-14.9 6.8-2.5 14.8-5.3 17.7-6.4 2.9-1 5.3-2.4 5.3-3.1 0-0.7-0.9-3.6-2-6.5-1-2.9-6.2-18.5-11.4-34.8-5.2-16.2-11.1-34.9-13.1-41.5-2-6.6-3.6-12.3-3.7-12.6 0-0.4 2.2 0.1 10.1 2.6zm-413.7-2.4c0.4 0 0.8 0.1 0.8 0.2 0 0.1-1.9 6.5-4.1 14.2-2.3 7.7-5.9 19.7-7.9 26.5-2.1 6.9-6.5 21.3-9.9 32-3.4 10.8-6.2 20.4-6.2 21.5 0 1.4 1.1 2.5 3.3 3.4 1.8 0.8 4.6 2 6.3 2.8 1.6 0.7 22.1 8.2 45.5 16.7 23.3 8.5 55.1 20.2 70.5 25.9 15.4 5.8 32.2 12.2 37.5 14.2 5.2 2 11.5 4.4 14 5.2 2.4 0.9 4.6 1.6 4.8 1.7 0.1 0.1-1 2.3-2.5 4.9-1.6 2.6-3.2 4.7-3.6 4.7-0.4 0-19.5-7-42.5-15.6-22.9-8.5-51.9-19.3-64.2-23.9-12.4-4.6-30.6-11.3-40.5-15-9.9-3.6-23.2-8.4-29.4-10.8-6.3-2.3-11.6-4.6-11.8-5.2-0.2-0.5 3.9-14.7 9.3-31.5 5.3-16.7 11.2-35.4 13.1-41.5 1.9-6 4.5-14.6 5.9-19 1.3-4.4 2.8-8.3 3.2-8.6 0.3-0.4 2.2-1.1 4.2-1.7 1.9-0.5 3.8-1 4.2-1.1zm410.6 66.3c0.4 0.2 1.3 2.5 2.2 5 0.8 2.5 1.2 4.8 1 5-0.3 0.2-7.5 1.4-16 2.6-8.6 1.2-22.3 3.5-30.5 5.1-8.3 1.6-21.8 4.7-30 7-8.3 2.2-18.6 5.2-23 6.6-4.4 1.3-15.5 5.1-24.5 8.3-9.1 3.3-21.9 8.3-28.5 11.3-6.6 2.9-17 8.2-23 11.7-6.1 3.5-12.6 7.5-14.5 8.9-1.9 1.5-3.1 2.1-2.7 1.4 0.4-0.7 4.8-4.6 9.9-8.6 5.1-4.1 13.3-10 18.3-13.2 4.9-3.2 15.3-8.9 23-12.6 7.7-3.7 19.1-8.7 25.5-11.2 6.3-2.5 15.7-5.9 21-7.5 5.2-1.7 14.9-4.7 21.5-6.5 6.6-1.9 19.8-5.1 29.5-7 9.6-2 22.4-4.1 28.5-4.7 6-0.7 11.1-1.3 11.3-1.5 0.2-0.2 0.7-0.3 1-0.1zm-414.5 0.6c1.7 0 9.2 0.9 16.7 2 7.4 1.1 15.7 2.4 18.5 2.9 2.7 0.6 10.6 2.4 17.5 4 6.8 1.7 18.1 4.8 25 6.9 6.8 2.2 19.2 6.6 27.5 9.7 8.2 3.2 20.4 8.4 27 11.5 6.6 3.1 16.9 8.8 23 12.5 6 3.8 15 9.8 20 13.5 4.9 3.7 9.6 7.5 10.5 8.5 0.8 1-1.2 0-4.5-2.2-3.3-2.2-11.7-7-18.5-10.6-6.9-3.6-18.8-9.2-26.5-12.5-7.7-3.2-20.1-8-27.5-10.5-7.5-2.5-18.9-6.1-25.5-8.1-6.6-1.9-16.9-4.6-22.8-6-5.9-1.4-17.4-3.9-25.5-5.5-8.1-1.6-20.6-3.6-27.7-4.6-7.2-0.9-13.1-1.7-13.3-1.8-0.1-0.1 0.5-2.3 1.4-4.9 1.4-4.4 1.8-4.8 4.7-4.8zm-2.1 24c1 0 5.5 0.7 10 1.5 4.6 0.9 13.4 2.4 19.8 3.6 6.3 1.1 19.8 4.1 30 6.6 10.1 2.5 26.6 7.2 36.5 10.5 9.9 3.2 20.9 7 24.5 8.4 3.5 1.4 7.4 2.9 8.5 3.4 1.1 0.5 8.9 4.1 17.5 8.1 8.5 4 20 10.3 25.5 14 5.5 3.8 11.1 8 15 12.1l-5-2c-2.8-1-10-4-16-6.6-6.1-2.6-21.2-8.8-33.5-13.8-12.4-4.9-38.5-14.3-58-20.8-19.6-6.4-43.2-14.1-52.5-17.1-9.4-2.9-17.3-5.5-17.5-5.8-0.3-0.3-1.7-0.7-3-0.9-1.4-0.2-2.8-0.6-3-0.8-0.3-0.2 0.3-0.4 1.2-0.4zm414.5 0.1c0.1 0-0.1 0.4-0.5 0.9-0.4 0.5-4.5 2.1-9.2 3.6-4.7 1.4-15.3 4.8-23.5 7.4-8.3 2.7-22.9 7.5-32.5 10.6-9.7 3.1-27 9.1-38.5 13.2-11.6 4.1-31.4 11.6-44 16.7-12.7 5.1-26.2 10.8-36.9 16l-0.2 5.5c-0.1 4.3-0.8 6.5-3.1 10-2.2 3.3-4.4 5.1-8.2 6.8-3.1 1.3-7.1 2.2-10.1 2.2-2.8 0-6.5-0.6-8.3-1.3-1.8-0.8-4.8-2.7-6.6-4.3-1.9-1.6-4.3-4.7-5.3-6.9-1-2.2-1.8-5.4-1.8-7.2 0-1.8 0.5-3.6 1.2-3.9 0.7-0.4 1.5-0.1 1.7 0.7 0.3 0.8 2.1 3.2 4 5.3 2 2.1 5.3 4.7 7.3 5.8 2.1 1 5.6 1.8 7.8 1.8 2.2 0 6.1-1 8.7-2.2 3-1.5 5.7-3.8 7.7-6.7 1.7-2.5 5.3-6.7 8.1-9.4 2.7-2.7 8.6-7.3 13-10.2 4.4-2.9 11.1-6.8 15-8.7 3.8-1.9 12.7-6 19.7-9.1 7-3.1 18.7-7.7 26-10.2 7.3-2.5 20-6.6 28.3-9.1 8.2-2.4 20.8-5.8 28-7.4 7.1-1.6 17.7-3.8 23.5-5 5.7-1.1 14.5-2.6 19.5-3.4 4.9-0.7 9.1-1.4 9.2-1.5zm-244.4 76.3c1.2 0.3 3.2 0.6 4.4 0.6 1.7 0 2.5 0.9 3.4 3.8 0.6 2.1 2.4 5.5 3.9 7.7 1.5 2.2 3.8 5 5.1 6.2 1.3 1.2 5.1 3.5 8.4 5 4.7 2.1 7.4 2.7 12.5 2.7 4.2-0.1 8.6-0.9 12.5-2.4 4-1.6 7.6-3.9 11.1-7.4 3.3-3.2 5.6-6.6 6.5-9.4 0.8-2.7 2.2-4.7 3.4-5.2 1.1-0.4 3.1-1.1 7-2.3l-0.8 5.4c-0.5 3-2.3 8.1-4 11.3-1.8 3.3-5.3 7.8-7.8 10-3 2.7-7.2 5.1-12.5 7.1-5.8 2.1-9.6 2.9-14.4 2.9-3.6-0.1-9.2-0.8-12.5-1.8-3.3-0.9-8.1-3-10.5-4.6-2.5-1.6-6.2-4.6-8.2-6.7-2.1-2-4.8-6.2-6.2-9.3-1.3-3-2.7-7.4-3-9.9-0.5-4.1-0.4-4.3 1.7-3.7z"/>
		<path id="Path 2" class="s2" d="m512 270c-1.1 1.1-2.3 3.2-2.6 4.8-0.4 1.9 0 3.5 1.3 5.2 1.1 1.4 3.2 2.9 4.6 3.5 1.9 0.7 3.3 0.6 5.3-0.5 1.4-0.8 3.3-2.7 4-4.3 0.8-1.5 1.1-3.5 0.8-4.5-0.4-0.9-1.6-2.7-2.8-4-1.4-1.5-3.2-2.2-5.3-2.2-1.9 0-4.1 0.8-5.3 2zm-72 32.3c-1.6 1.5-2.3 3.3-2.2 5.3 0.1 1.6 1.1 3.9 2.2 5.2 1.1 1.2 2.9 2.4 4 2.7 1.1 0.3 3.4-0.2 5-1 1.6-0.8 3.5-2.5 4.1-3.7 0.6-1.3 0.8-3.3 0.5-4.5-0.3-1.3-1.5-3.2-2.6-4.3-1.2-1.2-3.3-2-5.3-2-2.2 0-4.2 0.8-5.7 2.3zm143 0c-1.7 1.6-2.3 3.3-2.2 5.5 0.1 2.3 1.1 3.9 3.5 5.8 2.3 1.9 3.9 2.4 5.7 1.9 1.4-0.3 3.5-1.7 4.8-3 1.2-1.4 2.2-3.6 2.2-5 0-1.4-1.1-3.6-2.5-5q-2.5-2.5-5.8-2.5c-2.2 0-4.2 0.8-5.7 2.3zm-242.5 24.9c-1.1 0.6-2.6 1.8-3.3 2.7-0.7 0.9-1.2 3.4-1.2 5.6 0 2.9 0.6 4.6 2.2 6.2 1.3 1.2 3.4 2.5 4.8 2.8 1.5 0.4 3.8 0.1 5.8-0.9 1.7-0.9 3.6-2.5 4.2-3.6 0.6-1.1 1-3.4 1-5q0-3-3-6c-1.9-1.9-4-3-5.8-3-1.5 0-3.6 0.6-4.7 1.2zm342.3 0.3c-1.6 0.8-3.3 2.4-3.8 3.5-0.5 1.1-1 3.1-1 4.5 0 1.5 1.4 3.9 3.5 6 2.2 2.2 4.5 3.5 6.1 3.5 1.7 0 3.8-1.3 6-3.5 1.9-1.9 3.4-4.4 3.4-5.5 0-1.1-0.6-3.2-1.3-4.6-0.6-1.5-2.4-3.3-4-4-1.5-0.8-3.5-1.4-4.5-1.4-0.9 0.1-2.9 0.7-4.5 1.5zm-389.9 79c-1.6 0.8-3.1 2.5-3.4 3.8-0.3 1.2-0.3 3.4 0 5 0.4 1.8 1.8 3.3 4.1 4.5 3.4 1.7 3.6 1.6 6.2-0.4 2-1.5 2.9-3.1 3-5.7 0.2-2.8-0.3-4.3-2.2-6.2-1.4-1.4-3.1-2.5-3.8-2.5-0.6 0.1-2.4 0.7-4 1.5zm442.8-0.3c-1.1 0.6-2.6 1.8-3.3 2.7-0.7 0.9-1.2 2.8-1.2 4.4 0 1.8 1 3.5 3 5.2 2.1 1.7 3.7 2.3 5.2 1.9 1.3-0.3 3.3-1.7 4.5-3 1.3-1.3 2.3-3.3 2.3-4.4 0-1.1-1-3.1-2.3-4.4-1.2-1.3-3.1-2.7-4.2-3-1.1-0.3-2.9 0-4 0.6zm-426 56c-1.1 0.6-2.6 1.8-3.3 2.7-0.7 0.9-1.2 2.5-1.3 3.6 0 1.1 0.9 3.2 2.1 4.8 1.3 1.8 2.9 2.7 4.7 2.7 1.6 0 3.8-0.9 5-2.2 1.3-1.3 2.3-3.6 2.3-5.3 0-1.7-0.7-3.7-1.7-4.6-1-0.9-2.7-1.9-3.8-2.2-1.1-0.4-2.9-0.1-4 0.5zm410.1 0.9c-2.2 1.6-2.8 2.8-2.7 5.5 0.1 2 0.9 4.2 2.1 5.4 1.1 1.1 3.1 2 4.5 2 1.4 0 3.7-1 5.1-2.2q2.6-2.3 2.6-5.3 0-3-2.6-5.2c-1.4-1.3-3.4-2.3-4.4-2.3-1.1 0-3.1 0.9-4.6 2.1z"/>
	</g>
</svg>